# xmcd
#
# Track frame offsets: 
#        150
#        12579
#        27545
#        44825
#        54814
#        66779
#        77662
#        93199
#        107889
#        121614
#        132240
#        146649
#        162725
#        180909
#        195277
#
# Disc length: 2756 seconds
#
# Revision: 2
# Processed by: cddbd v1.5.2PL0 Copyright (c) Steve Scherf et al.
# Submitted via: ExactAudioCopyFreeDBPlugin 1.0
#
DISCID=c70ac20f
DTITLE=Billy Joe Shaver - Live From Austin TX {2012 New West NW 6225 C
DTITLE=D and DVD Ed}
DYEAR=1984
DGENRE=Bluegrass
TTITLE0=Ride Me Down Easy
TTITLE1=I Been To Georgia On A Fast Train
TTITLE2=Willy The Wandering Gypsy And Me
TTITLE3=Black Rose
TTITLE4=Woman Is The Wonder Of The World
TTITLE5=Love You Till The Cows Come Home
TTITLE6=Sweet Mama
TTITLE7=Street Walki'woman
TTITLE8=Fit To Kill And Going Out In Style
TTITLE9=One Moving Part
TTITLE10=Bottom Dollar
TTITLE11=I'm Just An Old Chunk Of Coal
TTITLE12=Oklahoma Wind
TTITLE13=You Can't Beat Jesus Christ
TTITLE14=Old Five And Dimers Like Me
EXTD=
EXTT0=
EXTT1=
EXTT2=
EXTT3=
EXTT4=
EXTT5=
EXTT6=
EXTT7=
EXTT8=
EXTT9=
EXTT10=
EXTT11=
EXTT12=
EXTT13=
EXTT14=
PLAYORDER=
